<svg width="13" height="14" viewBox="0 0 13 14" fill="none" xmlns="http://www.w3.org/2000/svg">
<g clip-path="url(#clip0_222_8)">
<path d="M6.50011 12.1946C5.98493 11.5397 5.17657 10.4737 4.426 9.32335C3.93242 8.56688 3.47051 7.78401 3.13371 7.06421C2.79015 6.32995 2.60476 5.7188 2.60476 5.28774C2.60476 3.13959 4.35262 1.39151 6.50022 1.39151C8.64735 1.39151 10.3953 3.13951 10.3957 5.28774L6.50011 12.1946ZM6.50011 12.1946C7.01527 11.5395 7.82367 10.4735 8.5743 9.32305C9.0679 8.56657 9.52985 7.78372 9.86668 7.06396C10.2103 6.32979 10.3956 5.71876 10.3957 5.28782L6.50011 12.1946Z" stroke="black"/>
<path d="M5.16848 5.28763C5.16848 4.55322 5.76647 3.95538 6.50035 3.95538C7.23423 3.95538 7.83221 4.55322 7.83221 5.28763C7.83221 6.02204 7.23423 6.61988 6.50035 6.61988C5.76647 6.61988 5.16848 6.02204 5.16848 5.28763Z" stroke="black"/>
</g>
<defs>
<clipPath id="clip0_222_8">
<rect width="13" height="13" fill="white" transform="translate(0 0.5)"/>
</clipPath>
</defs>
</svg>
