<svg width="17" height="14" viewBox="0 0 17 14" fill="none" xmlns="http://www.w3.org/2000/svg">
<path d="M12.9722 2H1.25C0.559361 2 0 2.56283 0 3.25V10.75C0 11.4412 0.563472 12 1.25 12H12.9722C13.6571 12 14.2222 11.4436 14.2222 10.75V3.25C14.2222 2.56406 13.6651 2 12.9722 2ZM12.7972 2.83333C12.5418 3.08736 8.14675 7.45925 7.995 7.61019C7.75889 7.84631 7.445 7.97631 7.11111 7.97631C6.77722 7.97631 6.46333 7.84628 6.22644 7.60942C6.12439 7.50789 1.77786 3.18428 1.42506 2.83333H12.7972ZM0.833333 10.5804V3.42014L4.43439 7.00222L0.833333 10.5804ZM1.42558 11.1667L5.02522 7.58992L5.63797 8.19944C6.03147 8.59294 6.55464 8.80964 7.11111 8.80964C7.66758 8.80964 8.19075 8.59294 8.58347 8.20022L9.197 7.58992L12.7966 11.1667H1.42558ZM13.3889 10.5804L9.78783 7.00222L13.3889 3.42014V10.5804Z" fill="black"/>
</svg>
