<svg width="17" height="14" viewBox="0 0 17 14" fill="none" xmlns="http://www.w3.org/2000/svg">
<path d="M4.35729 3.40257C4.31752 4.02881 4.44447 4.63082 4.63669 5.24503L4.63703 5.2461C5.02955 6.51463 5.62826 7.64502 6.35939 8.68702L6.3595 8.68718C7.34415 10.0921 8.5141 11.1965 9.87714 11.9916C10.4924 12.35 11.0956 12.6045 11.7333 12.6463L11.7339 12.6464C11.9381 12.6601 12.1106 12.635 12.2603 12.5707C12.4084 12.5071 12.554 12.3968 12.6933 12.2094L12.6936 12.209C12.8546 11.9931 13.0365 11.7809 13.2085 11.5802C13.2934 11.4811 13.3758 11.3849 13.4522 11.2924C13.5916 11.123 13.6495 10.9522 13.65 10.7963C13.6505 10.6407 13.5942 10.4725 13.4574 10.3074C13.0208 9.78078 12.5819 9.25684 12.1423 8.7321C12.0064 8.57132 11.8935 8.53574 11.8235 8.53574C11.7537 8.53574 11.6414 8.57113 11.5067 8.73178L11.5064 8.73204C11.2322 9.05836 10.9601 9.38209 10.6929 9.71094C10.642 9.7738 10.5467 9.87628 10.3962 9.9124C10.2285 9.95265 10.0896 9.89012 10.0023 9.83166C9.94007 9.79102 9.8775 9.75409 9.80727 9.71264C9.78755 9.701 9.76722 9.68901 9.74613 9.67648C9.65364 9.62151 9.55071 9.55856 9.45008 9.4835L9.44849 9.48232C8.61456 8.85289 7.92432 8.05004 7.32109 7.1622L7.32096 7.162C7.0178 6.71515 6.74089 6.22637 6.54594 5.66965M4.35729 3.40257L6.81457 2.33623C6.81438 2.336 6.81418 2.33577 6.81399 2.33554M4.35729 3.40257C4.38089 3.04234 4.48974 2.75845 4.68971 2.53123L4.69019 2.5307C4.86035 2.33654 5.03092 2.12988 5.19758 1.92794C5.30569 1.79696 5.41215 1.66797 5.51579 1.54568L5.51622 1.54516C5.65055 1.38604 5.76318 1.35012 5.83436 1.35C5.90577 1.34988 6.01887 1.38564 6.15422 1.5438M4.35729 3.40257L6.15422 1.5438M6.54594 5.66965L6.87627 5.55398L6.54601 5.66986C6.54599 5.66979 6.54596 5.66972 6.54594 5.66965ZM6.54594 5.66965C6.51841 5.59115 6.49248 5.48608 6.51014 5.36597C6.52844 5.24153 6.58677 5.14472 6.64883 5.07025L6.65261 5.06572L6.65265 5.06575C6.88461 4.79676 7.11148 4.52186 7.3419 4.24267C7.38055 4.19583 7.4193 4.14888 7.45819 4.10182L7.45845 4.1015C7.60233 3.92779 7.6593 3.75895 7.65912 3.60663C7.65895 3.45422 7.60151 3.28435 7.45615 3.10887L7.45565 3.10826C7.34929 2.97926 7.24283 2.85152 7.1357 2.72295L7.13541 2.72261C7.02875 2.59463 6.92142 2.46583 6.81399 2.33554M6.81399 2.33554C6.73886 2.24538 6.66482 2.15591 6.59123 2.06699C6.44549 1.89088 6.30149 1.71689 6.15422 1.5438M6.81399 2.33554L6.15422 1.5438M6.42048 1.31663C6.05907 0.893998 5.60788 0.893998 5.24878 1.31939C5.13825 1.4498 5.02957 1.58154 4.92097 1.71319C4.75813 1.91059 4.59545 2.10778 4.42698 2.3C4.16685 2.59557 4.03564 2.95743 4.00802 3.38006L6.42048 1.31663Z" stroke="black" stroke-width="0.7"/>
<path d="M10 4C10 4 11.0634 4.06338 11.5 4.5C11.9366 4.93662 12 6 12 6" stroke="black" stroke-width="0.7" stroke-linecap="round" stroke-linejoin="round"/>
<path d="M10 2.43701C10 2.43701 11.5919 2.29871 12.3353 2.85125C13.0786 3.40379 13.405 4.968 13.405 4.968" stroke="black" stroke-width="0.7" stroke-linecap="round" stroke-linejoin="round"/>
</svg>
